# Blender v2.74 (sub 0) OBJ File: 'test_rotatingdoor_model_render.blend'
# www.blender.org
o Cube
v 2.000000 -128 -128.000000
v -2.000000 -128 -128.000000
v -1.999999 0 -128.000000
v 2.000001 0 -128.000000
v 1.999998 -128 128.000000
v -2.000002 -128 128.000000
v -1.999999 0 128.000000
v 2.000000 0 128.000000
vt 0.000000 0.000000
vt 1.000000 0.000000
vt 1.000000 1.000000
vt 0.000000 1.000000
vt 0.010803 0.000000
vt 2.010803 0.000000
vt 2.010803 1.000000
vt 0.010803 1.000000
vn 0.000000 0.000000 -1.000000
vn 0.000000 0.000000 1.000000
vn -0.000000 -1.000000 0.000000
vn -1.000000 0.000000 -0.000000
vn 0.000000 1.000000 -0.000000
vn 1.000000 -0.000000 0.000000
usemtl textures/v_test_rgbaBumpHeightMap/tile1
s off
f 1/1/1 2/2/1 3/3/1 4/4/1
f 5/1/2 8/2/2 7/3/2 6/4/2
f 1/1/3 5/2/3 6/3/3 2/4/3
f 2/5/4 6/6/4 7/7/4 3/8/4
f 3/1/5 7/2/5 8/3/5 4/4/5
f 5/5/6 1/6/6 4/7/6 8/8/6
