# Blender v2.74 (sub 0) OBJ File: 'uv_box.blend'
# www.blender.org
o Cube
v -32.000000 32.000000 32.000000
v -32.000000 32.000000 -32.000000
v 32.000004 32.000000 -31.999992
v 31.999985 32.000000 32.000011
v -32.000015 -32.000000 31.999985
v -31.999981 -32.000000 -32.000019
v 32.000011 -32.000000 -31.999989
v 31.999996 -32.000000 32.000000
vt 0.000000 0.000000
vt 1.000000 0.000000
vt 1.000000 1.000000
vt 0.000000 1.000000
vn 0.000000 -1.000000 0.000000
vn 0.000000 1.000000 0.000000
vn 1.000000 0.000000 0.000000
vn -0.000000 -0.000000 1.000000
vn -1.000000 -0.000000 -0.000000
vn 0.000000 0.000000 -1.000000
usemtl textures/v_test_rgbaBumpHeightMap/tile1
s off
f 1/1/1 2/2/1 3/3/1 4/4/1
f 5/1/2 8/2/2 7/3/2 6/4/2
f 1/1/3 5/2/3 6/3/3 2/4/3
f 2/1/4 6/2/4 7/3/4 3/4/4
f 3/1/5 7/2/5 8/3/5 4/4/5
f 5/1/6 1/2/6 4/3/6 8/4/6
